<svg xmlns="http://www.w3.org/2000/svg" viewBox="0 0 512 512" width="512" height="512">
  <rect width="512" height="512" rx="64" fill="#09090b"/>
  <rect x="24" y="24" width="464" height="464" rx="48" fill="none" stroke="#0ea5e9" stroke-width="3" opacity="0.3"/>
  <!-- Grid lines -->
  <g opacity="0.08" stroke="#0ea5e9" stroke-width="1">
    <line x1="96" y1="64" x2="96" y2="400"/><line x1="160" y1="64" x2="160" y2="400"/>
    <line x1="224" y1="64" x2="224" y2="400"/><line x1="288" y1="64" x2="288" y2="400"/>
    <line x1="352" y1="64" x2="352" y2="400"/><line x1="416" y1="64" x2="416" y2="400"/>
    <line x1="64" y1="96" x2="448" y2="96"/><line x1="64" y1="160" x2="448" y2="160"/>
    <line x1="64" y1="224" x2="448" y2="224"/><line x1="64" y1="288" x2="448" y2="288"/>
    <line x1="64" y1="352" x2="448" y2="352"/>
  </g>
  <!-- Crosshair -->
  <circle cx="256" cy="224" r="72" fill="none" stroke="#0ea5e9" stroke-width="5"/>
  <circle cx="256" cy="224" r="16" fill="#0ea5e9"/>
  <line x1="256" y1="140" x2="256" y2="172" stroke="#0ea5e9" stroke-width="5"/>
  <line x1="256" y1="276" x2="256" y2="308" stroke="#0ea5e9" stroke-width="5"/>
  <line x1="172" y1="224" x2="204" y2="224" stroke="#0ea5e9" stroke-width="5"/>
  <line x1="308" y1="224" x2="340" y2="224" stroke="#0ea5e9" stroke-width="5"/>
  <!-- Corner brackets -->
  <path d="M80,120 L80,80 L120,80" fill="none" stroke="#0ea5e9" stroke-width="3" opacity="0.5"/>
  <path d="M432,120 L432,80 L392,80" fill="none" stroke="#0ea5e9" stroke-width="3" opacity="0.5"/>
  <path d="M80,380 L80,420 L120,420" fill="none" stroke="#0ea5e9" stroke-width="3" opacity="0.5"/>
  <path d="M432,380 L432,420 L392,420" fill="none" stroke="#0ea5e9" stroke-width="3" opacity="0.5"/>
  <!-- Text -->
  <text x="256" y="448" text-anchor="middle" fill="#e4e4e7" font-family="monospace" font-size="48" font-weight="800" letter-spacing="12">COMAND</text>
</svg>
